Coordinates
version=1
nRows=6
nColumns=40
inDegrees=yes

Units are S.I. units (second, meters, Newtons, ...)
If the header above contains a line with 'inDegrees', this indicates whether rotational values are in degrees (yes) or radians (no).

endheader
time	pelvis_tilt	pelvis_list	pelvis_rotation	pelvis_tx	pelvis_ty	pelvis_tz	hip_flexion_r	hip_adduction_r	hip_rotation_r	knee_angle_r	knee_angle_r_beta	ankle_angle_r	subtalar_angle_r	mtp_angle_r	hip_flexion_l	hip_adduction_l	hip_rotation_l	knee_angle_l	knee_angle_l_beta	ankle_angle_l	subtalar_angle_l	mtp_angle_l	lumbar_extension	lumbar_bending	lumbar_rotation	arm_flex_r	arm_add_r	arm_rot_r	elbow_flex_r	pro_sup_r	wrist_flex_r	wrist_dev_r	arm_flex_l	arm_add_l	arm_rot_l	elbow_flex_l	pro_sup_l	wrist_flex_l	wrist_dev_l
      4.29999999999999982236	      7.68412335031409110542	     -3.63604136708546388235	   -179.80473007663323414818	      0.40737442810678459182	      0.59621699641151471027	     -0.98074665913657532723	     76.43510957362266822201	    -49.86783588676917133853	      5.44298340411765924074	     67.57857965577788661449	      1.17946871881458048570	     -1.95477591740106260154	      0.00000000000000000000	      0.00000000000000000000	     67.33027249645353151664	    -49.54231437639953128382	    -12.79934667364163303205	     69.54954280245762276991	      1.21386851515960980663	      1.46385644084242860785	      0.00000000000000000000	      0.00000000000000000000	    -56.42484731394456787257	      1.06313844153993164454	      1.25546345763088762482	     59.26947181334795544672	     -9.88589663282765584995	     28.98703511868278326347	      2.44911511753919830525	     77.35864672120654006449	      0.00000000000000000000	      0.00000000000000000000	     48.22404769780923317057	     -0.72574066798306047232	     37.34029742821202546565	      2.27527057794958009751	      9.26426725962969399575	      0.00000000000000000000	      0.00000000000000000000
      4.30499999999999971578	      7.42295727451411746500	     -3.61625638571034579982	   -179.80965152782042082436	      0.40727692299936657516	      0.59686450865134477173	     -0.98070099919993403148	     76.02506219268391873811	    -49.86928894453131277942	      5.35762982114730057503	     67.51796037567049779682	      1.17841071278651776666	     -1.90110468723530279256	      0.00000000000000000000	      0.00000000000000000000	     66.99624565579286183947	    -49.53974144636758580873	    -12.83710137716028043542	     69.50891978180467845050	      1.21315950969711017216	      1.49333176994585792308	      0.00000000000000000000	      0.00000000000000000000	    -56.64346431317313346199	      1.13690604036472264760	      1.30375484539373420745	     59.28339799313965841066	     -9.89104483525340860695	     28.91963359215325368723	      2.44884807879484434068	     76.90999872480739441016	      0.00000000000000000000	      0.00000000000000000000	     48.23073095221370465424	     -0.69646026565558671884	     37.21424924419549284949	      2.30514596762386547724	      9.43343002469628366669	      0.00000000000000000000	      0.00000000000000000000
      4.30999999999999960920	      7.43732331532634383109	     -3.60380974153448851993	   -179.80414394398798094699	      0.40736522263968083513	      0.59670744993386792832	     -0.98068375737209845244	     76.07614408972295905187	    -49.86649868133766716483	      5.38280471880362920700	     67.55504966011282874661	      1.17905804291724503052	     -1.92036682587354801122	      0.00000000000000000000	      0.00000000000000000000	     67.09250190962167437192	    -49.52532949305692255848	    -12.73251621887833273661	     69.53861095550205106974	      1.21367771843691074629	      1.45432364169259686904	      0.00000000000000000000	      0.00000000000000000000	    -56.52332720908869845289	      1.20158298094571436287	      1.31075357246484069940	     59.25788351223783934074	     -9.80705234362259048453	     28.92929162677607379806	      2.38900563309888180896	     76.10464432731949102617	      0.00000000000000000000	      0.00000000000000000000	     48.17039350500409256028	     -0.70032998583550976068	     37.06917913224783944770	      2.23243193885590907044	     10.11503125499439192936	      0.00000000000000000000	      0.00000000000000000000
      4.31500000000000039080	      6.82134438072458149094	     -3.32474655609205793638	   -179.79571649037868041887	      0.40702968651108478726	      0.59845516176440349820	     -0.98063583628798034475	     74.72339310052355187963	    -49.86909637117043558874	      4.62658664571366529117	     67.37436425280854734865	      1.17590448764947841376	     -1.74741042191161133346	      0.00000000000000000000	      0.00000000000000000000	     66.56221189135695226469	    -49.57362369195380580322	    -12.40190803554845722090	     69.39785895833902884533	      1.21122113265765829482	      1.51561077619601403121	      0.00000000000000000000	      0.00000000000000000000	    -57.19993705775618764164	      1.49443844459283692316	      1.52988446872882399852	     59.32968849736334249201	     -9.75984576741621978613	     29.76698174424504372837	      2.41683992235584899078	     73.41031505455597994114	      0.00000000000000000000	      0.00000000000000000000	     48.35989475714336549572	     -0.63653987466238903803	     36.26044174761634053539	      2.14349997614381360123	     11.23242342382160785519	      0.00000000000000000000	      0.00000000000000000000
      4.32000000000000028422	      6.97515236512803227242	     -3.45113569878467041363	   -179.80290873386726957506	      0.40712828878079154737	      0.59808421926864874241	     -0.98068998114395389276	     75.13908198536739746487	    -49.86688118627701271635	      4.94449515171214581954	     67.42713422714356852339	      1.17682549744781739243	     -1.78279046618857428541	      0.00000000000000000000	      0.00000000000000000000	     66.62075769821153414796	    -49.52848891367126071827	    -12.57206398286827564448	     69.42648360829107900827	      1.21172072704655242603	      1.45132809988719979621	      0.00000000000000000000	      0.00000000000000000000	    -56.94448473387326714601	      1.42467507954595817843	      1.55363518655129850821	     59.30134844730466880947	     -9.92919519180130549785	     28.56067250429907744547	      2.43800827184421242677	     76.46792063712071296777	      0.00000000000000000000	      0.00000000000000000000	     48.31191824817785374080	     -0.42455473122852060985	     36.67874184154567984706	      2.32393872904535081503	      8.29328004978360056043	      0.00000000000000000000	      0.00000000000000000000
      4.32500000000000017764	      6.62444621414968981554	     -3.29180377806162072218	   -179.79408741024479922999	      0.40690453574439855444	      0.59901235351451853628	     -0.98069540884457029328	     74.38760993831751022753	    -49.86687694964061279279	      4.53267329964034981771	     67.35060754507757962983	      1.17548985488013912892	     -1.67701777298303844610	      0.00000000000000000000	      0.00000000000000000000	     66.34171785809283505841	    -49.55081075162047454796	    -12.35695375968077058815	     69.36636504222008170473	      1.21067146012703585889	      1.47580497468117655124	      0.00000000000000000000	      0.00000000000000000000	    -57.29866047156607322677	      1.61534963866785785669	      1.65653939631211755135	     59.33227789547569841488	     -9.85481327539075024902	     29.36754667158289322515	      2.42550713476405377378	     74.36048443570493304833	      0.00000000000000000000	      0.00000000000000000000	     48.35463237749195997139	     -0.43619202238067744659	     36.07698430841210779363	      2.23421415503982867534	      9.77794750252230571164	      0.00000000000000000000	      0.00000000000000000000
